/* XPM */
static char *_409e42193d949fad0d8ede79cb7dc69L0wX3MZTZGqeLkct[] = {
/* columns rows colors chars-per-pixel */
"50 50 229 2 ",
"   c None",
".  c #25241F",
"X  c #2D2B2B",
"o  c #393224",
"O  c #33322C",
"+  c #3C3A2E",
"@  c #3A332B",
"#  c #353431",
"$  c #3E3C34",
"%  c #3D3E39",
"&  c #362F29",
"*  c #4A0100",
"=  c #550206",
"-  c #5A0910",
";  c #7A0402",
":  c #720F0B",
">  c #473B2B",
",  c #513E2A",
"<  c #443D32",
"1  c #483F30",
"2  c #7A3C3F",
"3  c #4B412D",
"4  c #52422E",
"5  c #4B4234",
"6  c #4D4439",
"7  c #49453B",
"8  c #534635",
"9  c #524639",
"0  c #534A3C",
"q  c #5B4C3B",
"w  c #564B36",
"e  c #5D513A",
"r  c #53503F",
"t  c #62513E",
"y  c #4D4D41",
"u  c #534D43",
"i  c #5A4E43",
"p  c #574E49",
"a  c #5B5343",
"s  c #54514C",
"d  c #5C554A",
"f  c #585444",
"g  c #585951",
"h  c #625444",
"j  c #625648",
"k  c #625C4C",
"l  c #6B5C4C",
"z  c #685745",
"x  c #655D52",
"c  c #6C5E50",
"v  c #7C664C",
"b  c #73634F",
"n  c #6C6354",
"m  c #6D645A",
"M  c #6A6557",
"N  c #736554",
"B  c #746A5B",
"V  c #7A6B5C",
"C  c #766857",
"Z  c #7D725F",
"A  c #6B6A62",
"S  c #6C6765",
"D  c #736C63",
"F  c #7B6E62",
"G  c #746967",
"H  c #7C7364",
"J  c #7D756B",
"K  c #787669",
"L  c #7A7B71",
"P  c #810109",
"I  c #870507",
"U  c #99050A",
"Y  c #8C0213",
"T  c #950919",
"R  c #A30913",
"E  c #A91713",
"W  c #A7201D",
"Q  c #9B0722",
"!  c #983532",
"~  c #A83A36",
"^  c #AC2C30",
"/  c #9E763D",
"(  c #A97A36",
")  c #CD403F",
"_  c #BB2A43",
"`  c #CD3941",
"'  c #944B47",
"]  c #B95053",
"[  c #9C7248",
"{  c #866D5A",
"}  c #987A5A",
"|  c #8F7858",
" . c #A87644",
".. c #857B6D",
"X. c #867769",
"o. c #867D72",
"O. c #8B7E72",
"+. c #8F7374",
"@. c #897166",
"#. c #AE6360",
"$. c #C94F58",
"%. c #D05C6B",
"&. c #D46F76",
"*. c #CE656A",
"=. c #FB7473",
"-. c #B1823E",
";. c #9C825E",
":. c #B78A45",
">. c #B58747",
",. c #AA8958",
"<. c #B5925A",
"1. c #B28952",
"2. c #8B826F",
"3. c #9C8365",
"4. c #8B8275",
"5. c #8C857A",
"6. c #83847E",
"7. c #918475",
"8. c #938A7C",
"9. c #9B8D7A",
"0. c #988B76",
"q. c #A88C6A",
"w. c #AA936D",
"e. c #BB9462",
"r. c #AB8F72",
"t. c #AC9575",
"y. c #AB9178",
"u. c #B39976",
"i. c #C28F54",
"p. c #C59152",
"a. c #C19E67",
"s. c #C8A676",
"d. c #CBA06C",
"f. c #D77987",
"g. c #8A8A86",
"h. c #948D84",
"j. c #9A8D81",
"k. c #9C9284",
"l. c #9C958A",
"z. c #95938D",
"x. c #999995",
"c. c #A39A8B",
"v. c #A49888",
"b. c #B39A82",
"n. c #A59C94",
"m. c #9BA08A",
"M. c #ABA08D",
"N. c #ADA294",
"B. c #ABA69A",
"V. c #B6A898",
"C. c #BCA78C",
"Z. c #A29BA2",
"A. c #A9A7A3",
"S. c #B6AEA6",
"D. c #BAB4AC",
"F. c #BFB8AB",
"G. c #B8B4A8",
"H. c #BCBAB9",
"J. c #AFB4B0",
"K. c #E48F8E",
"L. c #C9AC9B",
"P. c #C2B098",
"I. c #C2B5AA",
"U. c #CBBAAA",
"Y. c #C7BDB6",
"T. c #D1AFA4",
"R. c #EAADAD",
"E. c #BFC2B9",
"W. c #CCC2B3",
"Q. c #C5C1BC",
"!. c #DBCCBB",
"~. c #D5C4BA",
"^. c #D0C9B4",
"/. c #E7CDBC",
"(. c #CFBFC1",
"). c #B1CFC3",
"_. c #C4C5C2",
"`. c #CAC8C7",
"'. c #D4CCC5",
"]. c #CAD4C9",
"[. c #D3D2CD",
"{. c #DBD6CB",
"}. c #D4D4D4",
"|. c #DBDAD4",
" X c #DCDCDC",
".X c #D8D6D5",
"XX c #CED4D4",
"oX c #E7DACA",
"OX c #E4DDDB",
"+X c #E7DCD5",
"@X c #FBD7D9",
"#X c #F0D3C5",
"$X c #DBE5DA",
"%X c #EBE4D7",
"&X c #E3E3DD",
"*X c #EBE5DA",
"=X c #F4E8DD",
"-X c #F7E7CE",
";X c #DFDFE1",
":X c #DEE2E3",
">X c #DAE8EB",
",X c #D9EAF3",
"<X c #E3E4E4",
"1X c #EAE6E4",
"2X c #E5EAE7",
"3X c #EDEBE5",
"4X c #E4E5EA",
"5X c #E6E9EA",
"6X c #EBEBEC",
"7X c #E9E6ED",
"8X c #F3EDE6",
"9X c #EDF1ED",
"0X c #E1F1EE",
"qX c #F5F4ED",
"wX c #FDF6EB",
"eX c #E4EAF1",
"rX c #ECEDF2",
"tX c #E6EAF6",
"yX c #FAEBF6",
"uX c #EEF2F3",
"iX c #EAF9F7",
"pX c #F3F4F4",
"aX c #F5FCF5",
"sX c #FBFDF5",
"dX c #F3F6FA",
"fX c #FFF3FB",
"gX c #F5FCFB",
"hX c #FCFCFC",
"jX c #F8F6F7",
/* pixels */
"                9XhXpXjXhXjXuXhXhXjXhX7XhX6XsX=X-X=XhXpXjXhXjXhXyXdXiXhXhXhXaXhXhX>XhXiX            ",
"                hX6XjXhXjX9XhX6XrXjX9XhXrXhXsXv.M.wXaXgXhX5XpXhXaXsX=XR.K.*.&.K.@XsX2X              ",
"                6XsXhXaXhXuXdXhXhXaXhXjXhX7XyXN.I.3X2X9X6X1XhX<X#X#.W U U E ) *.] R.aXyX            ",
"                hXqX$X2X X<X2X;X<X&X9X<XpX6X&XOX{.[.XXXX`.].}..X&Xz Y R W ~ W ] =.~ /.sX      3X    ",
"                [.B.L x.`.<X;X;X<X&X$X$X[.`.x...4.x.J.z.A s s x.0XW.- T U ; ; T E ` %.pXiX    hX    ",
"              H.u J s % g.J.A.x.g.6.m A S G c d 7 < $ + < 5 $ % _.$Xm.* P ; T * P R _ hX  6X        ",
"              A.f f d f s O O # O # M J y x j l z 9 6 0 > 5 5 X S XX].{ = P Y ; : U &.    hXgX      ",
"              H.3 a 0 f u y 7 s g.% &XB.6 1 i > , > 8 w e q + # X Z.}.`.+.= = ~ ! Y L.              ",
"              6X5.d e t q h , 8.8Xh.{.o.9 C b +.C c.4.n.~.F.$ o X # J.}.&XQ.G H.' Q +X              ",
"                U.v | ;.| { 3.C.1X].F.l.B.N.7.V.8.c.m +X3Xl.f f s A l._.{.OX8X3X#.$.                ",
"                sXoX9.b N @.V G.c.S k.N.U.O.I.p 7.B < M Y.M x 0 g s g y S X.G qXL.f.                ",
"                  J.u f u p o h.8 o O.M c d S j n 0 0 N.J < < < + $ + 3 8 1 @ L T.R.                ",
"                  0 4 t q h V { N 8 c i 1 u 1 1 0 B W.8.d k d 0 r 0 7 k j k x 7 G @X    fX          ",
"                  D.5 9 i U.4.H 8 8 H j 0 6 < O.q 4.V 5 j 0 k x n k k k C n u K +.OX    fX          ",
"                    x.m Y.Z.z.E.Z O.F H O.X.I.W...k.7.v...X.8.O.C B.G.2.l l A.*X(.].6XhXfX          ",
"                  N.9.0.!.{ S.V.c.4.n.F D.O.!.V k.oXW.!.8.N.{.Y.9.!.W.V.!.~.qXOXOX).pXuXfX          ",
"                  a , 4 V.h.J J h.6 Y.H v.c v.C k.4.S.l.9.S.V.y.0.M.0.t M.wX1X6X&X3X                ",
"                  B z q l B p u m i V 5 8 w h q 7 + x K f k n m a z 8 8 O.sX                        ",
"                n.M q q l 8 > 8 t w 8 q t h w z k f f M 7 0 k j f r a k u &X                        ",
"                  S.0 i j { z w e , q l b l C t k r B D k 5 e k e w a k < D.                        ",
"                    F.h.x m c j z t i b l N X.{ B n 4.H B n n n n N N H m G.hX                      ",
"                      |..XS.S.z.k.8.o.h.v.b v { 4.8.5.D M 5.J M V H a d p l.8X                      ",
"                      2X<XdXuX<XrX:X;X&X8X@.{ q.Q.{.OX1X.X.X[.|.[.|._.Q.Q.<X                        ",
"                    uX;XtXeXtX4X;XtXeX<X+X0.| ,.`.5XeX4XtX>XdX4X6XtXpX5XeX                          ",
"                    pX<XuX5X5X;X5X7X|.:X*X;.,.w. X5XrX5X6X:X4X5X<X6XrX XrX                          ",
"                      6X6X6X4X2X9X6X:X5XOX} <.t. XrX6XpX4X4X7X9X4XpX7X<X                            ",
"                      <XdX5X6X5X9X4X2X9X'.[ 1.t.:X6XdXrXpX<XjXrX6X6XpX;X                            ",
"                      pX5XjX6XrXqX4X5XpX'.[ 1.b.<XpX6XgX2XrXuX  6XjX6X7X                            ",
"                      5XdX6XpX    tX7XaXY. . .P.9X6XhX9XpX2X      9XhX1X                            ",
"                      jX          rX5XhXT. ./ U.      hX2X6X      hX9X6X                            ",
"                                  rX0XhXC. . .!.        pX5X          5X                            ",
"                                  tXiXhXb. .<.oX          6X                                        ",
"                                  9XuXhXy.( <.=X                                                    ",
"                                        y.( e.=X                                                    ",
"                                        y.-.a.8X                                                    ",
"                                        r.:.d.                                                      ",
"                                        t.:.s.                                                      ",
"                                        q.:.s.                                                      ",
"                                        q.:.s.                                                      ",
"                                        r.:.s.                                                      ",
"                                        ,.p.s.                                                      ",
"                                      aXq.p.s.                                                      ",
"                                      aXw.i.s.                                                      ",
"                                      6Xq.i.s.*X                                                    ",
"                                      {.;.i.d./.                                                    ",
"                                    ;XY.;.1.e.P. X                                                  ",
"                                    ;X).M.u.u.A. X                                                  ",
"                                    yX0X%XoX%X,X                                                    ",
"                                                                                                    ",
"                                                                                                    "
};
