/* XPM */
static char *result[] = {
/* columns rows colors chars-per-pixel */
"50 50 229 2 ",
"   c #090407",
".  c #080915",
"X  c #1F1E1D",
"o  c #1D1D22",
"O  c #262427",
"+  c #333436",
"@  c #342F33",
"#  c #582B03",
"$  c #4F3516",
"%  c #652B04",
"&  c #633501",
"*  c #683704",
"=  c #7C3702",
"-  c #6B3E16",
";  c #753C16",
":  c #76460A",
">  c #694417",
",  c #79491C",
"<  c #704B0E",
"1  c #594021",
"2  c #694A2A",
"3  c #7B4D24",
"4  c #764D25",
"5  c #7C572A",
"6  c #765836",
"7  c #6D542E",
"8  c #7C6036",
"9  c #3B3C41",
"0  c #4E4B4D",
"q  c #686554",
"w  c #68676A",
"e  c #787776",
"r  c #706D6D",
"t  c #970115",
"y  c #AB0115",
"u  c #AD0B1B",
"i  c #BA041C",
"p  c #A1131F",
"a  c #823C0A",
"s  c #B1251E",
"d  c #BA1926",
"f  c #B21327",
"g  c #9F3C2F",
"h  c #AA3C3B",
"j  c #C60316",
"k  c #D9141E",
"l  c #F3091B",
"z  c #EA241C",
"x  c #C50A24",
"c  c #D70D27",
"v  c #C4142B",
"b  c #CA1628",
"n  c #DA1326",
"m  c #DC152C",
"M  c #D4182B",
"N  c #D91732",
"B  c #E30724",
"V  c #F90A23",
"C  c #E4152B",
"Z  c #E9122D",
"A  c #E51929",
"S  c #F5162C",
"D  c #EA0F32",
"F  c #ED1533",
"G  c #F91733",
"H  c #C92831",
"J  c #D7263A",
"K  c #DD242E",
"L  c #FC2934",
"P  c #F32B2E",
"I  c #854418",
"U  c #845218",
"Y  c #985617",
"T  c #8A500D",
"R  c #97621D",
"E  c #A66417",
"W  c #AB6D0B",
"Q  c #864C27",
"!  c #96482A",
"~  c #865629",
"^  c #995C22",
"/  c #835D3B",
"(  c #895434",
")  c #A2592E",
"_  c #946228",
"`  c #87623F",
"'  c #95673A",
"]  c #867628",
"[  c #A7692B",
"{  c #AE742E",
"}  c #A36A36",
"|  c #B66C33",
" . c #AB7334",
".. c #BA7B31",
"X. c #C17637",
"o. c #BA3747",
"O. c #D03646",
"+. c #FB2F4A",
"@. c #FB3A44",
"#. c #824E40",
"$. c #B75D56",
"%. c #896C4C",
"&. c #956C45",
"*. c #93754C",
"=. c #957445",
"-. c #8E6B53",
";. c #8B715A",
":. c #967454",
">. c #8D774E",
",. c #BB7944",
"<. c #A47B5A",
"1. c #AB724B",
"2. c #927C67",
"3. c #B97E6E",
"4. c #D34F5F",
"5. c #FA4A58",
"6. c #E34553",
"7. c #C2764B",
"8. c #C8664F",
"9. c #D75861",
"0. c #F55B69",
"q. c #D77A7A",
"w. c #CB716C",
"e. c #E26774",
"r. c #ED7574",
"t. c #998759",
"y. c #A9855C",
"u. c #B1875F",
"i. c #9D8368",
"p. c #9B8678",
"a. c #9C9175",
"s. c #AB8A6C",
"d. c #A68564",
"f. c #B68866",
"g. c #AB9368",
"h. c #BA936B",
"j. c #A58A74",
"k. c #A5947A",
"l. c #BA9477",
"z. c #C28141",
"x. c #C99579",
"c. c #D39968",
"v. c #CCA87D",
"b. c #C77780",
"n. c #F27D8E",
"m. c #9D9794",
"M. c #AA9783",
"N. c #B89B85",
"B. c #AA9C95",
"V. c #B7A38A",
"C. c #BAA696",
"Z. c #B4B0AC",
"A. c #C78888",
"S. c #D39A88",
"D. c #DA9596",
"F. c #DA8485",
"G. c #FC878B",
"H. c #E79899",
"J. c #E2898C",
"K. c #C4AC8E",
"L. c #C7A788",
"P. c #D2A78A",
"I. c #C9B396",
"U. c #D6B69C",
"Y. c #CDAC89",
"T. c #EFA698",
"R. c #C9B8AA",
"E. c #D7BCA5",
"W. c #D4B7A5",
"Q. c #CDB6AE",
"!. c #F3A8A2",
"~. c #E8BDB1",
"^. c #EFAEB0",
"/. c #DDC59F",
"(. c #FCD192",
"). c #CFC3A4",
"_. c #D3C8AD",
"`. c #DAC6B8",
"'. c #D2CDB7",
"]. c #E6C9B8",
"[. c #F3CBBC",
"{. c #E9D0BA",
"}. c #BEB9C0",
"|. c #EEBFC5",
" X c #BDC1C2",
".X c #DAC9C1",
"XX c #DDD5C7",
"oX c #DBD4D3",
"OX c #E6CAC4",
"+X c #F5C7CA",
"@X c #EDDDCD",
"#X c #E7D9C8",
"$X c #F3D5CB",
"%X c #F3DDCD",
"&X c #FED6CB",
"*X c #F9CFD4",
"=X c #ECDBD3",
"-X c #E6D9D5",
";X c #F4DDD4",
":X c #F9DDD7",
">X c #EDCAD1",
",X c #DAE4CA",
"<X c #EBE2CC",
"1X c #F3E2CC",
"2X c #EBE4DC",
"3X c #EEE5D6",
"4X c #F4E3D3",
"5X c #FEEADD",
"6X c #F6E6D9",
"7X c #DCDDE2",
"8X c #DDE5E8",
"9X c #ECEAE6",
"0X c #FAECE3",
"qX c #FBEBEC",
"wX c #F6E7E7",
"eX c #EBF6E4",
"rX c #F4F4EB",
"tX c #FCF2EB",
"yX c #F8F7EB",
"uX c #E9EBF7",
"iX c #F6EDF4",
"pX c #EDFBF7",
"aX c #FDF3F2",
"sX c #FCFCF5",
"dX c #F4F6FB",
"fX c #F5FFFE",
"gX c #FEFDFB",
"hX c #F4F9F4",
"jX c None",
/* pixels */
"jXjXjXjXjXjXjXjXjXjXjXjXjXjXjXjXjXjXjXjXjXjXjXjXjXjXjXjXjXjXjXjXjXjXjXjXjXjXjXjXjXjXjXjXjXjXjXjXjXjX",
"jXjXjXjXjXjXjXjXjXjXjXjXjXjXjXjXjXjXjXjXjXjXjXjXjXjXjXjXjXjXjXjXjXjXjXjXjXjXjXjXjXjXjXjXjXjXjXjXjXjX",
"jXjXjXjXjXjXjXjXjXjXjXjXjXjXjXjXjXjXjXjXjXjXjXjXjXjXjXjXjXjXjXjXjXjXjXjXjXjXjXjXjXjXjXjXjXjXjXjXjXjX",
"jXjXjXjXjXjXjXjXjXjXjXjXjXjXjXjXjXjXjXjXjXjXjXjXjXjXjXjXjXjXjXjXjXjXjXjXjXjXjXjXjXjXjXjXjXjXjXjXjXjX",
"jXjXjXjXjXjXjXjXjXjXjXjXjXjXjXjXjXjXjXjXjXjXjXjXjXjXjXjXjXjXjXjXjXjXjXjXjXjXjXjXjXjXjXjXjXjXjXjXjXjX",
"jXjXjXjXjXjXjXjXjXjXjXjXjXjXjXjXjXjXjXjXjXjXjXjXjXjXjXjXjXjXjXjXjXjXjXjXjXjXjXjXjXjXjXjXjXjXjXjXjXjX",
"jXjXjXjXjXjXjXjXjXi.).jXjXjXjXjXjXjXjXjXjXjXjXjXjXjXjXjXjXjXjXjXjXjXjXjXjXjXjXjXi.jXjXjXjXjXjXjXjXjX",
"jXjXjXjXjXjXjXjXjX4 u.jXjXjXjXjXjXjXjXjXjXjXjXjXjXjXjXjXjXjXjXjXjXjXjXjXjXjXjXj.5 jXjXjXjXjXjXjXjXjX",
"jXjXjXjXjXjXjXjX~ :.jXjXjXjXjXjXjXjXjXjXjXjXjXjXjXjXjXjXjXjXjXjXjXjXjXjXjXjXjXjX' ( jXjXjXjXjXjXjXjX",
"jXjXjX].jXjXjXjX4 {.jXjXjXjXjXjXjXjXjXjXjXjXjXjXjXjXjXjXjXjXjXjXjXjXjXjXjXjXjXjXjX5 jXjXjXjX.XjXjXjX",
"jXjX2 ' jXjXjX/ i.jXjXjXjXjXjXjXjXjXjXjXjXjXjXjXjXjXjXjXjXjXjXjXjXjXjXjXjXjXjXjXjXs.%.jXjXjX*.> jXjX",
"jXjX, u.jXjXjX4 R.jXjXjXjXjXjXjXjXjXjXjXjXjXjXjXjXjXjXjXjXjXjXjXjXjXjXjXjXjXjXjXjX_.> jXjXjXs.Q C.jX",
"jXN.4 jXjXjXjX5 jXjXjXjXjXjXjXjXjXjXjXjXjXjXjXjXjXjXjXjXjXjXjXjXjXjXjXjXjXjXjXjXjXjX~ jXjXjXjX~ k.jX",
"jXs.&.jXjXjXp.' jXjXjXjXjXjXjXjXjXjXjXjXjXjXjXjXjXjXjXjXjXjXjXjXjXjXjXjXjXjXjXjXjXjX=.j.jXjXjX' jXjX",
"jXjX~ jXjXjX2.y.jXjXjXjXjXjXjXjXjXjXjXjXjXjXjXjXjXjXjXjXjXjXjXjXjXjXjXjXjXjXjXjXjXjXi.%.jXjXjX_ jXjX",
"jXjX~ I.jXjX;.f.jXjXjXjXjXjXjXjXjXjXjXjXjXjXjXjXjXjXjXjXjXjXjXjXjXjXjXjXjXjXjXjXjXjXl.' jXjXR., jXjX",
"jXjXjX: C.jX%.j.jXjXjXjXjXjXjXjXjXjXjXjXjXjXjXjXjXjXjXjXjXjXjXjXjXjXjXjXjXjXjXjXjXjXs.%.jXR.- jXjXjX",
"jXjXjXjX1 > - t.jXjXjXjXjXjXjXjXjXjXjXjXjXjXjXr.+.G V S V B n 6.+XjXjXjXjXjXjXjXjXjXd.> > * jXjXjXjX",
"jXjXjXjXjX>.# ' jXjXjXjXjXjXjX` ! jXjXjXjX0.L V G S S F G G Z C c h -.jXjXjXjXjXjXjX%.# %.jXjXjXjXjX",
"jXjXjXjXjXjXC.; E.jXjXjXjXjX*.-.I.OXfX^.G V G G Z Z C C Z D Z Z C m g ;.jXjXjXjXjXW.4 V.jXjXjXjXjXrX",
"2XjXjXjXjXjXjXp.' jXjXjXjXjXQ oXgXpX+XG S G F B C m n C C m M b N m K ! jXjXjXjXjX1.:.jXjXjXjXjXjX6X",
"i.~ jXjXjXjXjXjX7 L.jXjXjXM.&.gXdXtX+.V S G Z N v b b M N N b u v N n s k.jXjXjXK.7 XXjXjXjXjXjX( :.",
"k.< y.jXjXjXjXjXC.~ `.jXjXM.' rXsXn.D G G C M v d b M b m c C v p d d j A.jXjX_.5 B.jXjXjXjXjXh., s.",
"jX.X5 :.OXjXjXjXp.& / W.jXQ.a 8XqXO.V G C M b M v x i d d x M d y t v y w.jXW./ # *.jXjXjX].<.5 _.jX",
"jXjXjXj.6 ` ' , - 2 , , V.1X6 k.!.B F n B j i i i y u y y i b x A.H.x p b._.5 ;.C.k.y.:.%.~ p.jXjXjX",
"jXjXjXjXjXjXR.'.XX9XdXZ.7 ' *.7 H j b J 5.e.J.D.D.D.J.q.9.O.M j e.'.$.:XtX:X#XjXjXjXjXjXjXjXjXjXjXjX",
"jXjXjXjXjXjXjXjXaX].].`.].:.~ 3 O.F.].5X0XyXyXhXrX9X0X0X5X:X~.D.4.6 #XhXtX0X6XjXjXjXjXjXjXjXjXjXjXjX",
"jXjXjXjXjXjXjXjXjXY E W { c.f.{.rXpXgXaXqXaX9X;X;X;X=X=X#X=X2X6X<X<XyXqX5X6X@X#X} jXjXjXjXjXjXjXjXjX",
"jXjXjXjXjXjXjXjX7.R ^ ) | E v.dXqXrXgXgXrXrXeX5X4X<X#X@X@X%X%X$X&X@XqXqX5X4X%X1X| x.jXjXjXjXjXjXjXjX",
"jXjXjXjXjXjXjXjXh.[ 7.} Y R /.0X0XtXaXhXsXqX9X:XwX2X=X=X=X%X@X$X@X<X9XtX2X-X5X[.Y P.jXjXjXjXjXjXjXjX",
"jXjXjXjXjXjXjXjXjX| 7.b.$.Q U.tXrXsXyXsXsXtXyXtX0X0XwXwX6X4X=X4X$X$X[.).#X6X].7. .jXjXjXjXjXjXjXjXjX",
"jXjXjXjXjXjXjXjXjXY.X.8.w.$.3.aX0X2X=X].E.I.K.V.v.V.L.K.U.E.].#X4X0Xx.! q.q.8.| jXjXjXjXjXjXjXjXjXjX",
"jXjXjXjXjXjXjXjXjXjXjXP.c.S.~.W.~ 3 I = * : a T Y T U = & = , 3 5 g.$XT.A.S.jXjXjXjXjXjXjXjXjXjXjXjX",
"jXjXjXjXjXjXjXjXjXjXjXjXjXjXjX2.% < : u.C.,.E [ [  ._ 1.v.k.~ : * 5 jXjXjXjXjXjXjXjXjXjXjXjXjXjXjXjX",
"jXjXjXjXjXjXjXjXjXjXjXjXjXjXjX<.& : B.uXeXpXh.{  .{ ,.oXpXuXR., = U jXjXjXjXjXjXjXjXjXjXjXjXjXjXjXjX",
"jXjXjXjXjXjXjXjXjXjXjXjXjXjXjX=.% U XXdXXXB..Xu...X.E. XR.gXrX*.* : jXjXjXjXjXjXjXjXjXjXjXjXjXjXjXjX",
"jXjXjXjXjXjXjXjXjXjXjXjXjXjXjXy.% 5 9XgXm.. q c...u.`.r   Z.gXj.& 3 jXjXjXjXjXjXjXjXjXjXjXjXjXjXjXjX",
"jXjXjXjXjXjXjXjXjXjXjXjXjXjXjXx.* I =X2X] 2 -.f.T [ Y.6 $ L.hX' % ' jXjXjXjXjXjXjXjXjXjXjXjXjXjXjXjX",
"jXjXjXjXjXjXjXjXjXjXjXjXjXjXjXjX* & a.fX&X(.0XV.g.l.<X(.(.fX X; & g.jXjXjXjXjXjXjXjXjXjXjXjXjXjXjXjX",
"jXjXjXjXjXjXjXjXjXjXjXjXjXjXjXjX~ % 8 2XeX2X+XT.c.n.!.uXiXaXy.# * jXjXjXjXjXjXjXjXjXjXjXjXjXjXjXjXjX",
"jXjXjXjXjXjXjXjXjXjXjXr w jXjXjX).k.=X-X&XG.0.5.P V z P T.4X6XC.M.jXjXjXe w jXjXjXjXjXjXjXjXjXjXjXjX",
"jXjXjXjXjXjXjXjXjXw . O + X e jX$XOXOX].H.0.5.P L L L A O.~.].{.OXjXZ.o X O + 9 jXjXjXjXjXjXjXjXjXjX",
"jXjXjXjXjXjXjXjXjX  X O + @ X Z.P.P.K.P.r.L L S S z A k H N.L.P.C.`.0   O @ 9 . e jXjXjXjXjXjXjXjXjX",
"jXjXjXjXjXjXjXjXjXjXjXjXjXjXjXoX2X-X2X9X#X*X+X*X+X&XOX+X>X-XwX-X1X-Xm.w 0 0 jXjXjXjXjXjXjXjXjXjXjXjX",
"jXjXjXjXjXjXjXjXjXjXjXjXjXjXjXjXjXjXjXjXjXjXjXjXjXjXjXjXjXjXjXjXjXjXjXjXjXjXjXjXjXjXjXjXjXjXjXjXjXjX",
"jXjXjXjXjXjXjXjXjXjXjXjXjXjXjXjXjXjXjXjXjXjXjXjXjXjXjXjXjXjXjXjXjXjXjXjXjXjXjXjXjXjXjXjXjXjXjXjXjXjX",
"jXjXjXjXjXjXjXjXjXjXjXjXjXjXjXjXjXjXjXjXjXjXjXjXjXjXjXjXjXjXjXjXjXjXjXjXjXjXjXjXjXjXjXjXjXjXjXjXjXjX",
"jXjXjXjXjXjXjXjXjXjXjXjXjXjXjXjXjXjXjXjXjXjXjXjXjXjXjXjXjXjXjXjXjXjXjXjXjXjXjXjXjXjXjXjXjXjXjXjXjXjX",
"jXjXjXjXjXjXjXjXjXjXjXjXjXjXjXjXjXjXjXjXjXjXjXjXjXjXjXjXjXjXjXjXjXjXjXjXjXjXjXjXjXjXjXjXjXjXjXjXjXjX",
"jXjXjXjXjXjXjXjXjXjXjXjXjXjXjXjXjXjXjXjXjXjXjXjXjXjXjXjXjXjXjXjXjXjXjXjXjXjXjXjXjXjXjXjXjXjXjXjXjXjX"
};
