/* XPM */
static char *a5db291aca924312ceb2039373088968hmsqNb38os7gP0jI[] = {
/* columns rows colors chars-per-pixel */
"50 41 212 2 ",
"   c None",
".  c #162A17",
"X  c #1D2916",
"o  c #162418",
"O  c #1A271A",
"+  c #162C18",
"@  c #1B2C1C",
"#  c #142615",
"$  c #1B341C",
"%  c #1D3A1E",
"&  c #16321B",
"*  c #252D1B",
"=  c #292D1B",
"-  c #202A16",
";  c #372B1A",
":  c #23351C",
">  c #2A341D",
",  c #233D1F",
"<  c #2C3B1C",
"1  c #3F341E",
"2  c #35391F",
"3  c #1E2B20",
"4  c #1F3721",
"5  c #1D3B21",
"6  c #232F23",
"7  c #233323",
"8  c #243C24",
"9  c #2B3C21",
"0  c #26352A",
"q  c #2A3D2C",
"w  c #293826",
"e  c #333D22",
"r  c #3B3C20",
"t  c #3E3C28",
"y  c #2D3C30",
"u  c #452F1C",
"i  c #4C2D1C",
"p  c #512F1D",
"a  c #47361D",
"s  c #57351F",
"d  c #6C261D",
"f  c #433D22",
"g  c #483523",
"h  c #513C22",
"j  c #593A22",
"k  c #5C352A",
"l  c #642E21",
"z  c #6B3A23",
"x  c #783924",
"c  c #2C421D",
"v  c #39411F",
"b  c #1D4423",
"n  c #1E4824",
"m  c #234323",
"M  c #2C4423",
"N  c #254A26",
"B  c #2B4C26",
"V  c #24462A",
"C  c #2C432B",
"Z  c #254D2B",
"A  c #2B4C2B",
"S  c #354323",
"D  c #3A4325",
"F  c #344B24",
"G  c #33442A",
"H  c #314D2C",
"J  c #3B4A26",
"K  c #2B5126",
"L  c #25522A",
"P  c #2B532B",
"I  c #2B5B2D",
"U  c #26592C",
"Y  c #3D5325",
"T  c #33532A",
"R  c #3B552C",
"E  c #3E5A2A",
"W  c #375C2B",
"Q  c #2D4C32",
"!  c #334333",
"~  c #334B35",
"^  c #3A4A33",
"/  c #3B4B3A",
"(  c #2B5231",
")  c #2A5B30",
"_  c #325435",
"`  c #3A5432",
"'  c #335C3A",
"]  c #3C5A3B",
"[  c #39533D",
"{  c #3B622C",
"}  c #30602E",
"|  c #346339",
" . c #39663E",
".. c #4D4B1E",
"X. c #4C541E",
"o. c #444524",
"O. c #494523",
"+. c #434C23",
"@. c #4D4D24",
"#. c #42442A",
"$. c #454A2C",
"%. c #554225",
"&. c #5C4126",
"*. c #5F4729",
"=. c #534C2C",
"-. c #584E28",
";. c #425524",
":. c #4E5129",
">. c #435C2B",
",. c #4A5B2A",
"<. c #485626",
"1. c #555D24",
"2. c #5E5F28",
"3. c #595528",
"4. c #4E4B31",
"5. c #594735",
"6. c #435B34",
"7. c #4A5C3B",
"8. c #445637",
"9. c #585736",
"0. c #654224",
"q. c #694428",
"w. c #655D25",
"e. c #6C5D24",
"r. c #745223",
"t. c #674B35",
"y. c #665B39",
"u. c #714A29",
"i. c #44622D",
"p. c #4A622C",
"a. c #4C6B2A",
"s. c #5E622C",
"d. c #596B29",
"f. c #47673A",
"g. c #4A7435",
"h. c #587735",
"j. c #6A632C",
"k. c #65652D",
"l. c #746C2B",
"z. c #796527",
"x. c #79722E",
"c. c #6E6B39",
"v. c #666833",
"b. c #776031",
"n. c #6A7732",
"m. c #7C7734",
"M. c #3E5E43",
"N. c #3E6242",
"B. c #3A6C42",
"V. c #445444",
"C. c #475546",
"Z. c #595745",
"A. c #535C44",
"S. c #575748",
"D. c #625F4E",
"F. c #785646",
"G. c #7D5F52",
"H. c #436B4A",
"J. c #446748",
"K. c #50684F",
"L. c #49704F",
"P. c #4D6855",
"I. c #576953",
"U. c #59765A",
"Y. c #6F6844",
"T. c #756748",
"R. c #756759",
"E. c #76745E",
"W. c #5A7060",
"Q. c #626B60",
"!. c #707666",
"~. c #92241E",
"^. c #A1271F",
"/. c #882C20",
"(. c #972A21",
"). c #A72A22",
"_. c #BC2C24",
"`. c #A53726",
"'. c #B63C28",
"]. c #DF372C",
"[. c #E02A26",
"{. c #9D422B",
"}. c #895031",
"|. c #B5422A",
" X c #A6412B",
".X c #86632C",
"XX c #9F602E",
"oX c #82762D",
"OX c #816432",
"+X c #867C34",
"@X c #8B724C",
"#X c #807357",
"$X c #826846",
"%X c #8B6D60",
"&X c #877365",
"*X c #5C8636",
"=X c #658837",
"-X c #7A8235",
";X c #70913A",
":X c #7AA13F",
">X c #7F8441",
",X c #688943",
"<X c #898637",
"1X c #BD993C",
"2X c #978340",
"3X c #A99341",
"4X c #B79C44",
"5X c #BFA452",
"6X c #C49E47",
"7X c #CBAD4D",
"8X c #EBC754",
"9X c #F5CA4D",
/* pixels */
"                                                0                                                   ",
"                                                * 6                                                 ",
"                                              S..XS Q                                               ",
"                                              Q.4.G f.V 6                                           ",
"                                        7 @ V.!.D %.9.> 6                                           ",
"                                        0 @ Q C.7 x `.> y                                           ",
"                                          Q U T w ~.).> ! /                                         ",
"                                          ' P oXO.r.O.o.#.D                                         ",
"                                          ] R v , <Xn.:.b.4.!                                       ",
"                                        a.=X+X`.z ` w.+X8Xe.o 3                                     ",
"                                        J.g.=X.Xk.T N v.3X$.3 O                                     ",
"                                      7 ~ U *X>.E i.% m P V y                                       ",
"                                    ! @ ! Z ,.#.u r $ C.F.A.                                        ",
"                                    / * G D f s s ; @ J.D.%X$X6                                     ",
"                                  I.U.4.%.h e m.5X-.$ b E.y.1.< 0                                   ",
"                              7 @ V.J.A q.}.f 1X9Xm.$ 8.@Xk.a.N                                     ",
"                              ! 7 8 V D _.].i c.2XR w &X_ M j ,.g.                                  ",
"                                c.w.N e /.).; $ 8 N D g V 0.'.v.h.                                  ",
"                              _ p.i.V % e > + & 5 m P b W <Xm.h.8 0                                 ",
"                              q 5 $ v w.M 8 5 & ..<.L n W =Xn.*XN 0 6                               ",
"                              7 @ . c s.R.R.f.c ..-.S 2 2 c z.Y 9 X O                               ",
"                                / j.<Xv.G.9.d.1.9 - p j a $ : 5 A G 7                               ",
"                              :Xv.:.,.J S.c.F +.#.m a |.q.m : < P M.                                ",
"                            I.,XXX{.m + . R.C.: N N /.[.`.h u a L ~                                 ",
"                        8 4 A =Xl..XM + , ^ *.X m F z x f r OX&.$ q w @ o @                         ",
"                        ! ! } g.{ g.M m P >.3.- e.<X1.,.K k.8X3X$ % ..$ 7                           ",
"                        H.6.m n Z T , Z  .,.-.X ..M c x.;.9.6X<Xn c z.W ' M.                        ",
"                      t.=.O.m % % $ $ 9 S r m @ $ b % N % 8 T B L b $ L Z ~ C.                      ",
"                    M w z z 8 n m M $ G 0.*.9 O , B N $ $ $ T l.i.& * F 9 + O 6                     ",
"                    _ f ).'.e h $.o.K B `.|.* $ k.x.K $ + b B h.oXa i s G 0 6 @                     ",
"                    U.C.l k T.t.-.q.S F ~.(.: c v { L G s <.W U K > i `.=._ P.                      ",
"                  U.U.>.X.y.E.P 4X7X8.5 = < B K n n H OX'.k.g.U 5 7 l _.*.L ~ Q                     ",
"                B.| >.d.3.&X< F 4X6X:.+ 4 w.i.p.<.. a.;X-Xp.: ;.F S.k g > 5 8 m L (                 ",
"                N I f.j.F.S.V N 6.R $ & J <XW d.9.~ h.i.{ a.....1.9.R.n N S _ ] ) U Z               ",
"                ( (   Y.E.%XW.Z U n , w.w.<.n n Z N._ % # : M B 1.R.Z.V p.z.H K.H.|                 ",
"                        | ` J.' m m $ s.W b N ~ N P N % . $ 5 K.E.8.4 A  .H $ !                     ",
"                        L L H.  w _ 7 _ ' 5 8  .I B ( 8 8 N V t.A C 8 q L.  ! 0                     ",
"                                  C 7 [   M.7 _ L ) ' C.J.U ' P.0 / 8 7                             ",
"                                            q y Z        .L L                                       ",
"                                                          V                                         ",
"                                                                                                    "
};
