/* XPM */
static char *result[] = {
/* columns rows colors chars-per-pixel */
"50 37 252 2 ",
"   c #2E392B",
".  c #6F100B",
"X  c #53101A",
"o  c #34641E",
"O  c #674837",
"+  c #76523A",
"@  c #4D722D",
"#  c #6E7732",
"$  c #494F23",
"%  c #173655",
"&  c #3E495C",
"*  c #094C76",
"=  c #204178",
"-  c #5D514A",
";  c #505E61",
":  c #666658",
">  c #8C0803",
",  c #861507",
"<  c #930F10",
"1  c #AD0908",
"2  c #A80B17",
"3  c #B60819",
"4  c #AC1C15",
"5  c #A5131B",
"6  c #AC141B",
"7  c #AB1B1B",
"8  c #A71818",
"9  c #B3131C",
"0  c #B41C1C",
"q  c #B71717",
"w  c #B80B0B",
"e  c #95221F",
"r  c #A8241A",
"t  c #B7271A",
"y  c #B6331B",
"u  c #961622",
"i  c #8E1824",
"p  c #A90824",
"a  c #B40923",
"s  c #A41A23",
"d  c #AC1C22",
"f  c #AA1627",
"g  c #B41523",
"h  c #B71827",
"j  c #AF0C33",
"k  c #9F222A",
"l  c #A82425",
"z  c #B42423",
"x  c #B92826",
"c  c #B4342B",
"v  c #B73928",
"b  c #B92636",
"n  c #AC3432",
"m  c #B93A35",
"M  c #AD3723",
"N  c #C2091C",
"B  c #C71819",
"V  c #D31817",
"C  c #C52619",
"Z  c #C93414",
"A  c #D93510",
"S  c #C81A28",
"D  c #C80B22",
"F  c #C62628",
"G  c #C7372B",
"H  c #CE3132",
"J  c #EA1D18",
"K  c #B8491D",
"L  c #8C6E1B",
"P  c #924A2E",
"I  c #BB422D",
"U  c #BB4727",
"Y  c #B7542D",
"T  c #B94835",
"R  c #BC5A34",
"E  c #A75A28",
"W  c #90792C",
"Q  c #BC6229",
"!  c #AC7235",
"~  c #D8471C",
"^  c #D35319",
"/  c #E25D1A",
"(  c #D8651C",
")  c #D87317",
"_  c #D16B10",
"`  c #E37919",
"'  c #E0691D",
"]  c #C64626",
"[  c #D94426",
"{  c #C44B34",
"}  c #C84635",
"|  c #C85A37",
" . c #D7542E",
".. c #E35C24",
"X. c #E34B29",
"o. c #C66639",
"O. c #CA7D39",
"+. c #D96C2E",
"@. c #E6632A",
"#. c #E37B28",
"$. c #E26D3A",
"%. c #B62657",
"&. c #C6274B",
"*. c #CD196A",
"=. c #CB3F7C",
"-. c #8E5658",
";. c #B95444",
":. c #927449",
">. c #B27251",
",. c #A67C7D",
"<. c #DB5646",
"1. c #CA5447",
"2. c #C66A45",
"3. c #D26342",
"4. c #CA7646",
"5. c #D67747",
"6. c #CD7259",
"7. c #E47849",
"8. c #D74C72",
"9. c #E06E66",
"0. c #4D8B35",
"q. c #689738",
"w. c #6D9554",
"e. c #B28F33",
"r. c #93A933",
"t. c #BABA3E",
"y. c #D8950F",
"u. c #E3871C",
"i. c #E39A1B",
"p. c #ED990E",
"a. c #D5A60D",
"s. c #DAA819",
"d. c #DBB002",
"f. c #E8A808",
"g. c #EBAA19",
"h. c #D89539",
"j. c #D28A2E",
"k. c #E38B25",
"l. c #E69624",
"z. c #F99726",
"x. c #EA8A3A",
"c. c #E89936",
"v. c #F1973F",
"b. c #DAAD29",
"n. c #DAB52A",
"m. c #DCAB34",
"M. c #DDBB3C",
"N. c #E3AC28",
"B. c #E8B22B",
"V. c #E6AA38",
"C. c #E6BA3B",
"Z. c #E6B537",
"A. c #F4A23E",
"S. c #DCC729",
"D. c #DFC93F",
"F. c #E6C73A",
"G. c #E5D733",
"H. c #EAE13E",
"J. c #928F52",
"K. c #B89A4E",
"L. c #90A947",
"P. c #B9A548",
"I. c #8E8E67",
"U. c #A39E74",
"Y. c #D99846",
"T. c #D49351",
"R. c #EB934E",
"E. c #DDA947",
"W. c #DCB546",
"Q. c #D9B857",
"!. c #D1AD51",
"~. c #E9B847",
"^. c #F2BA47",
"/. c #EEA158",
"(. c #E6B957",
"). c #F6B755",
"_. c #EEAB4A",
"`. c #D8AE66",
"'. c #E6BC68",
"]. c #EDAE6B",
"[. c #E39C68",
"{. c #DCC256",
"}. c #DFCE4D",
"|. c #E5C946",
" X c #E7C659",
".X c #F3CA56",
"XX c #EAD756",
"oX c #F5D65C",
"OX c #F0D447",
"+X c #F0EC56",
"@X c #DACF6E",
"#X c #E9C868",
"$X c #FAC568",
"%X c #E9D669",
"&X c #F6D368",
"*X c #EBD878",
"=X c #F6D876",
"-X c #EDC67A",
";X c #FFE97A",
":X c #EEE96C",
">X c #377097",
",X c #DA6E98",
"<X c #64A096",
"1X c #70B4BF",
"2X c #5A96C4",
"3X c #A8929A",
"4X c #AFBCB7",
"5X c #AFA89C",
"6X c #CD8F90",
"7X c #CBB88E",
"8X c #E9B58F",
"9X c #C5B2B3",
"0X c #EBAFB3",
"qX c #B3CEAE",
"wX c #E7CB85",
"eX c #F6CC89",
"rX c #E6D787",
"tX c #EBD89A",
"yX c #F2D394",
"uX c #F4F193",
"iX c #DACFB6",
"pX c #EAD7AC",
"aX c #F4DAB8",
"sX c #F3D5B2",
"dX c #E9E3A7",
"fX c #F7E6AA",
"gX c #FCF8A9",
"hX c #F7E1B9",
"jX c #ECEAB0",
"kX c #D8D8A0",
"lX c #C1B4C6",
"zX c #D4CBC9",
"xX c #CED4C6",
"cX c #F1D4D2",
"vX c #DFE0DB",
"bX c #ECE7C7",
"nX c #F5E9C8",
"mX c #FBF8C7",
"MX c #EEE5DC",
"NX c #F9E9D6",
"BX c #EEF6D4",
"VX c #F0DDE6",
"CX c #DAE3EA",
"ZX c #EBEAE5",
"AX c #EBFAE7",
"SX c #F7F5E9",
"DX c #F7EAF7",
"FX c #EBFCF8",
"GX c #FDFDFD",
"HX c #F9F8F8",
"JX c #F1E8EB",
"KX c None",
/* pixels */
"KXKXKXKXKXKXKXKXKXKXKXKXKXKXKXKXKXKXKXKXKXKXKXKXKXKXKXKXKXKXKXKXKXKXKXKXKXKXKXKXKXKXKXKXKXKXKXKXKXKX",
"KXKXKXKXKXKXKXKXKXKXKXKXKXKXKXKXKXKXKXKXKXKXKXKXKXKXKXKXKXKXKXKXKXKXKXKXKXKXKXKXKXKXKXKXKXKXKXKXKXKX",
"KXKXKXKXKXKXKXKXKXKXKXKXKXKXT KXKXKXKXKXKXKXKXKXKXKXKXKXKXKXKXKXKXKXKXKXKXKXKXKXKXKXKXKXKXKXKXKXKXKX",
"KXKXKXKXKXKXKXKXKXKXKXKX> , l . P KXKXKXKXKXKXKXKXKXKXKXKXKXKXKXKXKXKXKXKXKXKXKXKXKXKXKXKXKXKXKXKXKX",
"KXKXKXKXKXKXKXKXKXKXKX;.e . . X < 0XKXKXKXKXKXKXKXKXKXKXKXKXKXKXKX8X^.T.KXKXKXKXKXKXKXKXKXKXKXKXKXKX",
"KXKXKXKXKXKXKXKXKXGXcX< . l . i i P vXKXKXKXKXKXKXKXKXKXKXKXKXKXi.` g.+.j.KXKXKXKXKXKXKXKXKXKXKXKXKX",
"KXKXKXKXKXKXV.).].zXvXn , > > i k W @ 0.KXKXKXKXKXKXKXKXKXKXGX'._ O.u.Y u.kXKXKXKXKXKXKXKXKXKXKXKXKX",
"KXKXKXKXj.( S h ( C.R ,X6.>.6.2 P 0.@   o KXKXKXKXKXKXKXKXGXxXV.) u._ Q ) j.KXKXKXKXKXKXKXKXKXKXKXKX",
"KXKXKXKX` g d s p H C.8XCXFX6XD >.@ @ $ # J.KXKX5X3X9XiXKXZXL.j.z.+.u.i.u.t.kXKXKXKXKXKXKXKXKXKXKXKX",
"KXKXKXKX) a g 9 t r Z B.`.9X3Xj -.:.J.w.# ,X6XxX9X3X4X9XVXFXq.L r.r.r.z.e.0.q.KXKXKXKXKXKXKXKXKXKXKX",
"KXKXKXKXKX' Z 0 v ;.} V v.@X6.&.: *.*.O - *.&.9.7XiXzXzX6XzXJ.j.r.q.# _ r.o w.VX$X~.O.k.).KXKXKXKXKX",
"KXKXKXKXKX!.V.k.B l j.b q x.D.T.-.%.=.- - ,X&.J D &.n <.> P P.B. XW T.p.e.0.I.-Xc.g 2 3 H E.KXKXKXKX",
"KXKXKXKXKXKXVX!.k.D ! | v a H ^.-X[.1.+ O 8.H u < p 8 1 . E {.Q.n.! }.c.r.o K..X1 h c.j.a ) KXKXKXKX",
"KXKXKXKXKXKXKXZXC.~ M { T y 2 H $.h.^._.A.c.m.l.#.y 5 5 2 R W e.e.L ! Y.# $ #X<.p 5.XX_.A u.KXKXKXKX",
"KXKXKXKXKXKXKXKX7Xk.D Y y 0 a c } p 9 C C C F A ( i.j.0 6 h.e.!.! e.T.@X<Xw.).N 3 A.8X].B./.KXKXKXKX",
"KXKXKXKXKXKXKXKXMXc. .1.h f r T.U 7 h 0 g f 4 s p B x.j.D `.E.h.K.=X!.1X2X7XR.2 6 R.yXDXVXKXKXKXKXKX",
"KXKXKXKXKXKXKXKXDXW.@.} h m T.5.| | 4.0 s 8 0 q h 5 B (.( U.4X4X1XrX+X>X& =XH 7 8 3.&XJXKXKXKXKXKXKX",
"KXKXKXKXKXKXKXKXKXQ.~ { x o.M v 5.Q t I t h f l d r 2 ..OX:.* >X* K.|.; '.R.N 0 9 B _.'.KXKXKXKXKXKX",
"KXKXKXKXKXKXKXKXKX'.^ u c r x $.R 4 5.| 5 0 t 8 x v x 3 x..XO % = : ^.*X/.N 0 r 0 5 B v.].KXKXKXKXKX",
"KXKXKXKXKXKXKXKXKX'.( p <.3.y Y z O.4.| 1 f s z 2.5.} f 9 @..X@X@X#XXXx.q j 7 d 9 ] x G V.KXKXKXKXKX",
"KXKXKXKXKXKXKXKXKXKX#.p F '.4.x | m U /.1.5 a t 3.O.E 6 f 3 B / ..X.S a v } d 7 3 U T C l.aXKXKXKXKX",
"KXKXKXKXKXKXKXKXKXKXl.0 7 Y.6.T 6 r 5 | [.m 8 t v G x f 6 x u 2 4 2 7 z O.2.z 6 c 4.G x c.cXKXKXKXKX",
"KXKXKXKXKXKXKXKXKXKX~.~ m 1.{ [.5.x c T v | 1 8 9 h h 0 8 q c G 9 0 h s { { a x T.o.< A ~.DXGXKXKXKX",
"KXKXKXKXKXKXKXKXKXKXKXN.S T 2.y x g f v | G ;.2.y l 6 d 7 v 2.2.m 8 h 7 f t U T 1.v N k.(.8X*XKXKXKX",
"KXKXKXKXKXKXKXKXKXKXKX'.c.C 1 9 f 4 r v G v I m 2.5 h 9 q M 4.4.v g 7 9 b o.o.{ { C 5.~.s.Z.i.b.KXKX",
"KXKXKXKXKXKXKXKXKXKXKXKX@X).x.G B a a 6 7 d 7 y K I r 0 6 x } { y 6 h r Y c p a G x.^.V.nXFXdXf. XKX",
"KXKXKXKXKXKXKXKXKXKXKXKXKX`. X.X_.7.[ C S 3 3 a g F 2 2 6 g p 2 p 2 3 3 1 S ] #.(.-XsX=XfXZ.AX Xa.nX",
"KXKXKXKXKXKXKXKXKXKXKXKXKX&XpXCX-X+X+X|.B.i.#.' ^ ~ X... .[ ....$.7.7.R./.).oXeXsXZXHX%X|.f.aXaXy.hX",
"KXKXKXKXKXKXKXKXKXKXKXKXKX:XnXmXuXuXjXmXjXrXS.B.!.[.E.(.%XKXKXKX:X+XH.eXpXbX=XKXKXKXKXBXXX%XKXdXi.aX",
"KXKXKXKXKXKXKXKXKXKXKXKXKX+XgXgXSXHXGXDXGXAXNX(.-XHXDXfXKXKXKXKXKXnXuX|.VXHXKXKXKXKXKXKXKXKXKXpXa.KX",
"KXKXKXKXKXKXKXKXKXKXKXKXuX:XuXHXFXGXDXGXSXHXFXAXs.aXgXuXKXKXKXKXKXKXFXhXZ.eXKXKXKXKXKXKXKXKXKX'.b.KX",
"KXKXKXKXKXKXKXKXKXKXKXNX:X+XnXSXuXfXFXFXSXsXtXHX-X(.:XKXKXKXKXKXKXKXmXGXrXS.KXKXKXKXKXKXKXKXbXs.KXKX",
"JX(.tXy.KXKXKXKXKXKXJX+XgX%XhXBXF.OXfXGXtXd.C.HXwXg.oXKXKX+XKXKXKX&XS.nXaXn.XXKXKXKXKXKXKXSXQ.f.KXKX",
"rX~.SXpXpXKXKXKXKXdX+XgXHXgX%XHXBX|.mXAXyX{.MXZXW.aXXXnXAX*X;XHXNXOXaXSX#XeXjXG.KXKXKXFXMX Xa.KXKXKX",
"KXs.C.yXjXpXyX*X.XF.%XbXpXaX#XF.F.(.nXpXsXs.Z.N.#XNXwXW.%X|.eXNXaX|.{.W.(.bXbX$XS.eXyX&XN.a.KXKXKXKX",
"KXKXKXKXKXKX^.|.~.~.m.C.m.Z.~.W.n.W.V.B.(.~.V.W.~.B.M.n.V.m.b.Z.m.W.B.Z.E.b.B.m.|.F.KXKXKXKXKXKXKXKX",
"GXKXKXKXKXKXKXKXKXKXKXKXKXKXKXKXKXKXKXKXKXKXKXKXKXKXKXKXKXKXKXKXKXKXKXKXKXKXKXKXKXKXKXKXKXKXKXKXKXKX"
};
