/* XPM */
static char *result[] = {
/* columns rows colors chars-per-pixel */
"50 50 66 1 ",
"  c #505050",
". c #535353",
"X c gray33",
"o c #565656",
"O c #585858",
"+ c #5A5A5A",
"@ c #5B5B5B",
"# c gray36",
"$ c #5D5E5E",
"% c gray37",
"& c #5F5F5F",
"* c #4F5372",
"= c gray38",
"- c #626262",
"; c gray39",
": c #656565",
"> c gray40",
", c #676767",
"< c #686868",
"1 c #6A6A6A",
"2 c gray42",
"3 c #6C6C6C",
"4 c #6D6D6D",
"5 c gray43",
"6 c #6F6F6F",
"7 c #717171",
"8 c #727272",
"9 c #747474",
"0 c #777777",
"q c #74767D",
"w c gray48",
"e c #7C7C7C",
"r c gray50",
"t c #686EB4",
"y c #656DB8",
"u c #6E76CB",
"i c #808080",
"p c #818181",
"a c gray51",
"s c #838383",
"d c gray53",
"f c #888888",
"g c gray54",
"h c #8D8D8D",
"j c gray56",
"k c #979797",
"l c #989898",
"z c gray60",
"x c gray61",
"c c #9D9D9D",
"v c #A2A2A2",
"b c gray65",
"n c #A9A9A9",
"m c #AAAAAA",
"M c #AFAFAF",
"N c gray69",
"B c #B9B9B9",
"V c #BBBBBB",
"C c #BCBCBC",
"Z c gray77",
"A c gray79",
"S c gray81",
"D c LightGray",
"F c #D7D7D7",
"G c #D8D8D8",
"H c None",
/* pixels */
"HHHHHHHHHHHHHHHHHHHHHHHHHHHHHHHHHHHHHHHHHHHHHHHHHH",
"HHHHHHHHHHHHHHHHHHHHHHHHHHHHHHHHHHHHHHHHHHHHHHHHHH",
"HHHHHHHHHHHHHHHHHHHHHHHHHHHHHHHHHHHHHHHHHHHHHHHHHH",
"HHHHHHHHHHHHHHHHHHHHHHHHHHHHHHHHHHHHHHHHHHHHHHHHHH",
"HHHHHHHHHHHHHHHHHHHHHHHHHHHHHHHHHHHHHHH,HHHHHHHHHH",
"HHHHHHHHHH,HHHHHHHHHHHHHHHHHHHHHHHHHHHH;HHHHHHHHHH",
"HHHHHHHHHH1HHHHHHHHHHHHHHHHHHHHHHHHH&HHiHH-HHHHHHH",
"HHHHHHH1HH9HH;HHHHHHHHHHHHHHHHHHHHHHHHbCdHHHHHHHHH",
"HHHHHHHoHvnfH#HHHHHHHHHHHHHHHHHHHHHHHHxBwHHHHHHHHH",
"HHHHHHHHHMDjHHHHHHHHHHHHHHHHHHHHHHHH;HHrHH>HHHHHHH",
"HHHHHHHHHsk8HHHHHHHHHHHHHHHHHHHHHHHHXHHHHHoHHHHHHH",
"HHHHHHH=HH0HH%HHHHHHHHHHHHHHHHHHHHHHHHH;HHHHHHHHHH",
"HHHHHHHHHH1HHHHHHHHHHHHHHHHHHHHHHHHHHHHHHHHHHHHHHH",
"HHHHHHHHHH+HHHHHHHHHHHHHHHHHHHHHHHHHHHHHHHHHHHHHHH",
"HHHHHHHHHHHHHHHHHHHHHHHHHHHHHHHHHHHHHHHHHHHHHHHHHH",
"HHHHHHHHHHHHHHHHHHHHHHHHHHe<HHHHHHHHHHHHHHHHHHHHHH",
"HHHHHHHHHHHHHHHHHHHHHHHHHHs4HHHHHHHHHHHHHHHHHHHHHH",
"HHHHHHHHyHHHHHHHHHHHHHHH8pczi8-HHHHHHHHHHHHHHHHHHH",
"HHHHHHHHHHHHHHHHHHHHHHHHHzSGx2HHHHHHHHHHHHHHHHHHHH",
"HHHHHHHHHHHHHHHHHHHHHHHHHkAFlHHHHHHHHHHHHHHHHHHHHH",
"HHHHHHHHHHHHHHHHHHHHHHHH67fkw6:HHHHHHHHHHHHHHHHHHH",
"HHHHHHHHHHHHHHHHHHHHHHHH+HHhHHHHHHHHHHHHHHHHHHHHHH",
"HHHHHHHHHHHHHHHHHHHHHHHHHH1qHHHHHHHHHHHHHHHHHHHHHH",
"HHHHHHHHHHHHHHHHHHHHHHHHHHH*tHHHHHHHHHHHHHHHHHHHHH",
"HHHHHHHHHHHHHHHHHHHHHHHHHHHHHHHHHHHHHHHHHHHHHHHHHH",
"HHHHHHHHHHHHHHuHHHHHHHHHHHHHHHHHHHHHHHHHHHHHHHHHHH",
"HHHHHHHHHHHHHHHHHHHHHHHHHHHHHHHHHHHHHHHHHHHHHHHHHH",
"HHHHHHHHHHHHHHHHHHHHHHHHHHHHHHHHHHHHHHHHHHHHHHHHHH",
"HHHHHHHHHHHH8OHHHHHHHHHHHHHHHHHHHHHHHHHHHHHHHHHHHH",
"HHHHHHHHHHHHHHHHHHHHHHHHHHHHHHHHHHHHHHHHHHHHHHHHHH",
"HHHHHHHHHH@HkaH- HHHHHHHHHHHHHHHHHHHHHHHHHHHHHHHHH",
"HHHHHHHHHHHgZV3HHHHHHHHHHHHHHHHHHHHHHHHHHHHHHHHHHH",
"HHHHHHHHHHHdNm5HHHHHHHHHHHHHHHHHHHHHHHHHHHHHHHHHHH",
"HHHHHHHHH$&HHeH>.HHHHHHHHHHHHHHHHHHHHHHHHHHHHHHHHH",
"HHHHHHHHHHHHHHHHHHHHHHHHHHHHHHHHHHHHHHHHHHHHHHHHHH",
"HHHHHHHHHHHH%+HHHHHHHHHHHHHHHHHHHHHHHHHHHHHHHHHHHH",
"HHHHHHHHHHHHHHHHHHHHHHHHHHHHHHHHHHHHHHHHHHHHHHHHHH",
"HHHHHHHHHHHHHHHHHHHHHHHHHHHHHHHHHHHHHHHHHHHHHHHHHH",
"HHHHHHHHHHHHHHHHHHHHHHHHHHHHHHHHHHHHHHHHHHHHHHHHHH",
"HHHHHHHHHHHHHHHHHHHHHHHHHHHHHHHHHHHHHHHHHHHHHHHHHH",
"HHHHHHHHHHHHHHHHHHHHHHHHHHHHHHHHHHHHHHHHHHHHHHHHHH",
"HHHHHHHHHHHHHHHHHHHHHHHHHHHHHHHHHHHHHHHHHHHHHHHHHH",
"HHHHHHHHHHHHHHHHHHHHHHHHHHHHHHHHHHHHHHHHHHHHHHHHHH",
"HHHHHHHHHHHHHHHHHHHHHHHHHHHHHHHHHHHHHHHHHHHHHHHHHH",
"HHHHHHHHHHHHHHHHHHHHHHHHHHHHHHHHHHHHHHHHHHHHHHHHHH",
"HHHHHHHHHHHHHHHHHHHHHHHHHHHHHHHHHHHHHHHHHHHHHHHHHH",
"HHHHHHHHHHHHHHHHHHHHHHHHHHHHHHHHHHHHHHHHHHHHHHHHHH",
"HHHHHHHHHHHHHHHHHHHHHHHHHHHHHHHHHHHHHHHHHHHHHHHHHH",
"HHHHHHHHHHHHHHHHHHHHHHHHHHHHHHHHHHHHHHHHHHHHHHHHHH",
"HHHHHHHHHHHHHHHHHHHHHHHHHHHHHHHHHHHHHHHHHHHHHHHHHH"
};
